<svg width="32" height="40" viewBox="0 0 32 40" fill="none" xmlns="http://www.w3.org/2000/svg">
<path d="M26.7275 20.8817C26.6779 15.9039 30.7867 13.5164 30.9704 13.3958C28.6612 10.0195 25.0637 9.55622 23.7833 9.5035C20.7241 9.19279 17.811 11.3055 16.2591 11.3055C14.7103 11.3055 12.3125 9.54903 9.77564 9.59376C6.43847 9.64328 3.36249 11.5347 1.64519 14.522C-1.82058 20.5342 0.758576 29.4442 4.13568 34.3238C5.78669 36.7089 7.75561 39.3926 10.3388 39.2944C12.8285 39.1962 13.7678 37.6841 16.7775 37.6841C19.7871 37.6841 20.6322 39.2944 23.2657 39.2441C25.9431 39.1954 27.6404 36.8135 29.2779 34.4188C31.1733 31.648 31.9537 28.965 32 28.8292C31.9417 28.802 26.781 26.8251 26.7275 20.8817Z" fill="white"/>
<path d="M21.7794 6.27416C23.1492 4.61117 24.0774 2.30039 23.825 0C21.8481 0.0798748 19.455 1.31394 18.0356 2.97534C16.764 4.44982 15.6522 6.79734 15.9501 9.0562C18.1555 9.22714 20.4047 7.93396 21.7794 6.27416Z" fill="white"/>
</svg>
